<?xml version="1.0" standalone="no"?>
<!DOCTYPE svg PUBLIC "-//W3C//DTD SVG 20010904//EN"
 "http://www.w3.org/TR/2001/REC-SVG-20010904/DTD/svg10.dtd">
<svg version="1.0" xmlns="http://www.w3.org/2000/svg"
 width="640.000000pt" height="640.000000pt" viewBox="0 0 640.000000 640.000000"
 preserveAspectRatio="xMidYMid meet">
<metadata>
Created by potrace 1.11, written by Peter Selinger 2001-2013
</metadata>
<g transform="translate(0.000000,640.000000) scale(0.100000,-0.100000)"
fill="#000000" stroke="none">
<path d="M1320 6390 c-25 -4 -62 -11 -82 -14 -173 -28 -387 -111 -545 -212
-134 -85 -255 -195 -378 -345 -30 -35 -115 -165 -115 -175 0 -4 -6 -15 -13
-23 -21 -25 -83 -169 -116 -268 -70 -211 -65 -64 -67 -2128 -2 -1794 -2 -1864
17 -1970 56 -319 195 -589 420 -814 223 -224 507 -369 824 -423 65 -10 427
-13 1920 -13 1012 0 1867 3 1900 7 33 4 80 11 105 17 25 5 56 12 70 14 58 11
217 70 303 113 425 213 701 573 809 1054 l23 105 0 1885 0 1885 -23 100 c-13
55 -25 110 -28 122 -14 69 -91 248 -150 351 -69 122 -216 295 -334 395 -172
146 -437 274 -645 313 -11 2 -54 10 -95 18 -64 13 -341 15 -1915 14 -1012 0
-1860 -4 -1885 -8z"/>
</g>
</svg>
